<svg xmlns="http://www.w3.org/2000/svg" id="nc16800" viewBox="0 0 512 512">
        <defs>
          <radialGradient id="nc16800-g" cx=".35" cy=".26" r="1.05"><stop offset="0" stop-color="#e6fdff"></stop><stop offset=".4" stop-color="#00d5e8"></stop><stop offset="1" stop-color="#064a5a"></stop></radialGradient>
          <linearGradient id="nc16800-s2" x1="0" y1="0" x2="0" y2="1"><stop offset="0" stop-color="#0a94ac"></stop><stop offset="1" stop-color="#04303f"></stop></linearGradient>
          <radialGradient id="nc16800-au" cx=".5" cy=".45" r=".62"><stop offset="0" stop-color="#00f0ff" stop-opacity=".58"></stop><stop offset="1" stop-color="#00f0ff" stop-opacity="0"></stop></radialGradient>
          <filter id="nc16800-f" x="-80%" y="-80%" width="260%" height="260%"><feGaussianBlur stdDeviation="19"></feGaussianBlur></filter>
          <g id="nc16800-s"><polygon points="0,-14 3.5,-3.5 14,0 3.5,3.5 0,14 -3.5,3.5 -14,0 -3.5,-3.5" fill="#e6fbff"></polygon></g>
          <g id="nc16800-l">
            <rect x="-88" y="-15" width="176" height="18" fill="url(#nc16800-s2)"></rect>
            <ellipse cx="0" cy="3" rx="88" ry="27" fill="url(#nc16800-s2)"></ellipse>
            <ellipse cx="0" cy="-15" rx="88" ry="27" fill="url(#nc16800-g)"></ellipse>
            <ellipse cx="0" cy="-15" rx="60" ry="17" fill="none" stroke="#04303f" stroke-width="3" opacity=".6"></ellipse>
            <path d="M -60 -25 A 76 24 0 0 1 60 -25" stroke="#e6fbff" stroke-width="3.5" fill="none" opacity=".45" stroke-linecap="round"></path>
          </g>
          <g id="nc16800-st">
            <circle cx="0" cy="0" r="82" fill="#04303f"></circle>
            <circle cx="0" cy="0" r="75" fill="url(#nc16800-g)"></circle>
            <circle cx="0" cy="0" r="64" fill="none" stroke="#04303f" stroke-width="4" stroke-dasharray="19 9"></circle>
            <polygon points="51,0 25,-44 -25,-44 -51,0 -25,44 25,44" fill="#04303f"></polygon>
            <polygon points="51,0 25,-44 -25,-44 -51,0 -25,44 25,44" fill="none" stroke="#9ff7ff" stroke-width="2.5" opacity=".8"></polygon>
            <text x="0" y="13" text-anchor="middle" font-family="Orbitron,sans-serif" font-size="33" font-weight="900" fill="#00f0ff">NC</text>
            <path d="M -44 -63 A 76 76 0 0 1 44 -63" stroke="#e6fbff" stroke-width="5" fill="none" opacity=".5" stroke-linecap="round"></path>
          </g>
        </defs>
        <ellipse cx="256" cy="240" rx="234" ry="219" fill="url(#nc16800-au)"></ellipse>
        <polygon points="256,36 448,146 448,366 256,476 64,366 64,146" fill="none" stroke="#00f0ff" stroke-width="1.5" opacity=".26"></polygon>
        <ellipse cx="256" cy="432" rx="220" ry="42" fill="none" stroke="#00f0ff" stroke-width="2" opacity=".4"></ellipse>
        <ellipse cx="256" cy="430" rx="190" ry="31" fill="#000000" opacity=".5" filter="url(#nc16800-f)"></ellipse>
        <ellipse cx="256" cy="422" rx="210" ry="42" fill="#00f0ff" opacity=".46" filter="url(#nc16800-f)"></ellipse>
        <use href="#nc16800-l" transform="translate(116,376)"></use>
        <use href="#nc16800-l" transform="translate(122,347)"></use>
        <use href="#nc16800-l" transform="translate(114,318)"></use>
        <use href="#nc16800-l" transform="translate(120,289)"></use>
        <use href="#nc16800-l" transform="translate(396,372)"></use>
        <use href="#nc16800-l" transform="translate(390,343)"></use>
        <use href="#nc16800-l" transform="translate(398,314)"></use>
        <use href="#nc16800-l" transform="translate(256,380)"></use>
        <use href="#nc16800-l" transform="translate(250,351)"></use>
        <use href="#nc16800-l" transform="translate(259,322)"></use>
        <use href="#nc16800-l" transform="translate(252,293)"></use>
        <use href="#nc16800-l" transform="translate(257,264)"></use>
        <use href="#nc16800-l" transform="translate(253,235)"></use>
        <use href="#nc16800-st" transform="translate(148,220) scale(.72) rotate(-10)"></use>
        <use href="#nc16800-st" transform="translate(374,222) scale(.77) rotate(12)"></use>
        <use href="#nc16800-s" transform="translate(112,116) scale(1.15)"></use>
        <use href="#nc16800-s" transform="translate(406,102) scale(.85)"></use>
        <use href="#nc16800-s" transform="translate(256,76) scale(.75)"></use>
        <circle cx="68" cy="276" r="4" fill="#9ff7ff" opacity=".7"></circle>
      </svg>